<?xml version="1.0" standalone="no"?>
<!DOCTYPE svg PUBLIC "-//W3C//DTD SVG 20010904//EN"
 "http://www.w3.org/TR/2001/REC-SVG-20010904/DTD/svg10.dtd">
<svg version="1.0" xmlns="http://www.w3.org/2000/svg"
 width="424.000000pt" height="424.000000pt" viewBox="0 0 424.000000 424.000000"
 preserveAspectRatio="xMidYMid meet">
<metadata>
Created by potrace 1.11, written by Peter Selinger 2001-2013
</metadata>
<g transform="translate(0.000000,424.000000) scale(0.100000,-0.100000)"
fill="#000000" stroke="none">
<path d="M50 3515 l0 -675 675 0 675 0 0 675 0 675 -675 0 -675 0 0 -675z"/>
<path d="M1450 3515 l0 -675 670 0 670 0 0 675 0 675 -670 0 -670 0 0 -675z
m420 355 l0 -50 50 0 50 0 0 -50 0 -50 150 0 150 0 0 50 0 50 50 0 50 0 0 50
0 50 50 0 50 0 0 -50 0 -50 -50 0 -50 0 0 -50 0 -50 50 0 50 0 0 -50 0 -50 50
0 50 0 0 -50 0 -50 50 0 50 0 0 -150 0 -150 -50 0 -50 0 0 100 0 100 -50 0
-50 0 0 -100 0 -100 -50 0 -50 0 0 -50 0 -50 -100 0 -100 0 0 50 0 50 100 0
100 0 0 50 0 50 -250 0 -250 0 0 -50 0 -50 100 0 100 0 0 -50 0 -50 -100 0
-100 0 0 50 0 50 -50 0 -50 0 0 100 0 100 -50 0 -50 0 0 -100 0 -100 -50 0
-50 0 0 150 0 150 50 0 50 0 0 50 0 50 50 0 50 0 0 50 0 50 50 0 50 0 0 50 0
50 -50 0 -50 0 0 50 0 50 50 0 50 0 0 -50z"/>
<path d="M1870 3570 l0 -50 50 0 50 0 0 50 0 50 -50 0 -50 0 0 -50z"/>
<path d="M2270 3570 l0 -50 50 0 50 0 0 50 0 50 -50 0 -50 0 0 -50z"/>
<path d="M2840 3515 l0 -675 675 0 675 0 0 675 0 675 -675 0 -675 0 0 -675z"/>
<path d="M50 2120 l0 -670 675 0 675 0 0 670 0 670 -675 0 -675 0 0 -670z"/>
<path d="M1450 2120 l0 -670 670 0 670 0 0 670 0 670 -670 0 -670 0 0 -670z"/>
<path d="M2840 2120 l0 -670 675 0 675 0 0 670 0 670 -675 0 -675 0 0 -670z
m430 350 l0 -50 50 0 50 0 0 -50 0 -50 150 0 150 0 0 50 0 50 50 0 50 0 0 50
0 50 50 0 50 0 0 -50 0 -50 -50 0 -50 0 0 -50 0 -50 50 0 50 0 0 -50 0 -50 50
0 50 0 0 -50 0 -50 50 0 50 0 0 -150 0 -150 -50 0 -50 0 0 100 0 100 -50 0
-50 0 0 -100 0 -100 -50 0 -50 0 0 -50 0 -50 -100 0 -100 0 0 50 0 50 100 0
100 0 0 50 0 50 -250 0 -250 0 0 -50 0 -50 100 0 100 0 0 -50 0 -50 -100 0
-100 0 0 50 0 50 -50 0 -50 0 0 100 0 100 -50 0 -50 0 0 -100 0 -100 -50 0
-50 0 0 150 0 150 50 0 50 0 0 50 0 50 50 0 50 0 0 50 0 50 50 0 50 0 0 50 0
50 -50 0 -50 0 0 50 0 50 50 0 50 0 0 -50z"/>
<path d="M3270 2170 l0 -50 50 0 50 0 0 50 0 50 -50 0 -50 0 0 -50z"/>
<path d="M3670 2170 l0 -50 50 0 50 0 0 50 0 50 -50 0 -50 0 0 -50z"/>
<path d="M50 725 l0 -675 675 0 675 0 0 675 0 675 -675 0 -675 0 0 -675z m420
345 l0 -50 50 0 50 0 0 -50 0 -50 150 0 150 0 0 50 0 50 50 0 50 0 0 50 0 50
50 0 50 0 0 -50 0 -50 -50 0 -50 0 0 -50 0 -50 50 0 50 0 0 -50 0 -50 50 0 50
0 0 -50 0 -50 50 0 50 0 0 -150 0 -150 -50 0 -50 0 0 100 0 100 -50 0 -50 0 0
-100 0 -100 -50 0 -50 0 0 -50 0 -50 -100 0 -100 0 0 50 0 50 100 0 100 0 0
50 0 50 -250 0 -250 0 0 -50 0 -50 100 0 100 0 0 -50 0 -50 -100 0 -100 0 0
50 0 50 -50 0 -50 0 0 100 0 100 -50 0 -50 0 0 -100 0 -100 -50 0 -50 0 0 150
0 150 50 0 50 0 0 50 0 50 50 0 50 0 0 50 0 50 50 0 50 0 0 50 0 50 -50 0 -50
0 0 50 0 50 50 0 50 0 0 -50z"/>
<path d="M470 770 l0 -50 50 0 50 0 0 50 0 50 -50 0 -50 0 0 -50z"/>
<path d="M870 770 l0 -50 50 0 50 0 0 50 0 50 -50 0 -50 0 0 -50z"/>
<path d="M1450 725 l0 -675 670 0 670 0 0 675 0 675 -670 0 -670 0 0 -675z
m420 345 l0 -50 50 0 50 0 0 -50 0 -50 150 0 150 0 0 50 0 50 50 0 50 0 0 50
0 50 50 0 50 0 0 -50 0 -50 -50 0 -50 0 0 -50 0 -50 50 0 50 0 0 -50 0 -50 50
0 50 0 0 -50 0 -50 50 0 50 0 0 -150 0 -150 -50 0 -50 0 0 100 0 100 -50 0
-50 0 0 -100 0 -100 -50 0 -50 0 0 -50 0 -50 -100 0 -100 0 0 50 0 50 100 0
100 0 0 50 0 50 -250 0 -250 0 0 -50 0 -50 100 0 100 0 0 -50 0 -50 -100 0
-100 0 0 50 0 50 -50 0 -50 0 0 100 0 100 -50 0 -50 0 0 -100 0 -100 -50 0
-50 0 0 150 0 150 50 0 50 0 0 50 0 50 50 0 50 0 0 50 0 50 50 0 50 0 0 50 0
50 -50 0 -50 0 0 50 0 50 50 0 50 0 0 -50z"/>
<path d="M1870 770 l0 -50 50 0 50 0 0 50 0 50 -50 0 -50 0 0 -50z"/>
<path d="M2270 770 l0 -50 50 0 50 0 0 50 0 50 -50 0 -50 0 0 -50z"/>
<path d="M2840 725 l0 -675 675 0 675 0 0 675 0 675 -675 0 -675 0 0 -675z
m430 345 l0 -50 50 0 50 0 0 -50 0 -50 150 0 150 0 0 50 0 50 50 0 50 0 0 50
0 50 50 0 50 0 0 -50 0 -50 -50 0 -50 0 0 -50 0 -50 50 0 50 0 0 -50 0 -50 50
0 50 0 0 -50 0 -50 50 0 50 0 0 -150 0 -150 -50 0 -50 0 0 100 0 100 -50 0
-50 0 0 -100 0 -100 -50 0 -50 0 0 -50 0 -50 -100 0 -100 0 0 50 0 50 100 0
100 0 0 50 0 50 -250 0 -250 0 0 -50 0 -50 100 0 100 0 0 -50 0 -50 -100 0
-100 0 0 50 0 50 -50 0 -50 0 0 100 0 100 -50 0 -50 0 0 -100 0 -100 -50 0
-50 0 0 150 0 150 50 0 50 0 0 50 0 50 50 0 50 0 0 50 0 50 50 0 50 0 0 50 0
50 -50 0 -50 0 0 50 0 50 50 0 50 0 0 -50z"/>
<path d="M3270 770 l0 -50 50 0 50 0 0 50 0 50 -50 0 -50 0 0 -50z"/>
<path d="M3670 770 l0 -50 50 0 50 0 0 50 0 50 -50 0 -50 0 0 -50z"/>
</g>
</svg>
